Coordinates
version=1
nRows=37
nColumns=38
inDegrees=no

Units are S.I. units (second, meters, Newtons, ...)
If the header above contains a line with 'inDegrees', this indicates whether rotational values are in degrees (yes) or radians (no).

endheader
time	pelvis_tilt	pelvis_list	pelvis_rotation	pelvis_tx	pelvis_ty	pelvis_tz	hip_flexion_r	hip_adduction_r	hip_rotation_r	knee_angle_r	ankle_angle_r	subtalar_angle_r	mtp_angle_r	hip_flexion_l	hip_adduction_l	hip_rotation_l	knee_angle_l	ankle_angle_l	subtalar_angle_l	mtp_angle_l	lumbar_extension	lumbar_bending	lumbar_rotation	arm_flex_r	arm_add_r	arm_rot_r	elbow_flex_r	pro_sup_r	wrist_flex_r	wrist_dev_r	arm_flex_l	arm_add_l	arm_rot_l	elbow_flex_l	pro_sup_l	wrist_flex_l	wrist_dev_l
1.66	-0.0306277	1.4157	-1.34651	0.730042	0.365993	0.952553	0.336072	-0.0604531	-0.0609461	0.710354	-0.271822	0	0	-0.26141	-0.00747747	-0.0420197	0.137282	-0.185036	0	0	-0.400522	0.114089	-0.113028	-0.051922	-0.537084	0.651942	0.740123	0.77306	0	0	-0.0851528	-0.12927	-0.136532	0.594181	1.5708	0	0
1.67	-0.0184318	1.41907	-1.35828	0.730373	0.3579	0.951185	0.330988	-0.0623213	-0.0614925	0.645384	-0.25839	0	0	-0.269508	-0.00558199	-0.039993	0.134089	-0.1792	0	0	-0.397697	0.112244	-0.112184	-0.0511574	-0.537717	0.655734	0.739397	0.76721	0	0	-0.0823327	-0.129938	-0.13334	0.59171	1.5708	0	0
1.68	-0.00462755	1.42258	-1.37182	0.730665	0.349593	0.949767	0.323961	-0.0640541	-0.0622741	0.577322	-0.247878	0	0	-0.27778	-0.00350762	-0.0384878	0.130595	-0.173409	0	0	-0.394227	0.110538	-0.110929	-0.0513955	-0.538892	0.659653	0.739092	0.761726	0	0	-0.078516	-0.129019	-0.133591	0.587924	1.5708	0	0
1.69	0.0186185	1.42268	-1.39344	0.730921	0.341426	0.948507	0.310917	-0.0664957	-0.0642034	0.505829	-0.242469	0	0	-0.289176	-0.00137744	-0.0364118	0.128384	-0.166942	0	0	-0.388488	0.10642	-0.0364236	-0.17751	-0.483831	0.371973	0.754707	0.972558	0	0	-0.00985167	-0.19359	0.198537	0.544774	1.33807	0	0
1.7	0.0306239	1.4251	-1.40434	0.731339	0.332929	0.947157	0.296801	-0.0669632	-0.0636052	0.426268	-0.24727	0	0	-0.297653	-0.000440796	-0.0359021	0.127591	-0.160808	0	0	-0.389689	0.107303	-0.0647319	-0.133867	-0.509391	0.479496	0.751009	0.882509	0	0	-0.0359686	-0.160992	0.0373479	0.556057	1.46895	0	0
1.71	0.0543091	1.42654	-1.42661	0.731603	0.324262	0.945626	0.283207	-0.0687631	-0.0623811	0.35554	-0.249058	0	0	-0.306876	0.0014464	-0.035763	0.128309	-0.154997	0	0	-0.387897	0.10512	-0.0614274	-0.141419	-0.5065	0.4661	0.751621	0.891618	0	0	-0.0317564	-0.164812	0.05718	0.553815	1.45495	0	0
1.72	0.069822	1.42666	-1.44044	0.731803	0.315548	0.944301	0.264435	-0.0683347	-0.0566168	0.278462	-0.259881	0	0	-0.316334	0.00143764	-0.0363259	0.130737	-0.14869	0	0	-0.387487	0.104682	-0.0573438	-0.150169	-0.503118	0.448428	0.752826	0.902206	0	0	-0.0258649	-0.168758	0.080839	0.550065	1.438	0	0
1.73	0.0934935	1.42763	-1.46184	0.731969	0.306591	0.942709	0.252711	-0.0699856	-0.0545506	0.225367	-0.256125	0	0	-0.323871	0.00242368	-0.0376395	0.135664	-0.143256	0	0	-0.3852	0.10283	-0.0559787	-0.157457	-0.50017	0.435893	0.753669	0.910794	0	0	-0.0231189	-0.174649	0.106718	0.549431	1.41863	0	0
1.74	0.108889	1.4276	-1.4747	0.732141	0.297588	0.941279	0.238624	-0.0704476	-0.0497864	0.173923	-0.266926	0	0	-0.331496	0.00166469	-0.0399209	0.142671	-0.135424	0	0	-0.384867	0.10295	-0.0609881	-0.155105	-0.503042	0.446179	0.754832	0.900387	0	0	-0.0266852	-0.171065	0.0885645	0.550705	1.43907	0	0
1.75	0.123662	1.42775	-1.48694	0.732282	0.288518	0.939851	0.228617	-0.0714941	-0.0465131	0.140461	-0.276634	0	0	-0.337955	0.00066824	-0.0425701	0.151736	-0.128275	0	0	-0.384231	0.103236	-0.0658255	-0.153823	-0.505157	0.453563	0.756223	0.892195	0	0	-0.0296581	-0.168285	0.073819	0.551224	1.45482	0	0
1.76	0.136874	1.42766	-1.49699	0.73241	0.279384	0.93852	0.222245	-0.0727432	-0.0455478	0.125904	-0.284542	0	0	-0.343944	-0.00108552	-0.0442937	0.16197	-0.121952	0	0	-0.383849	0.103866	-0.0709219	-0.153158	-0.506123	0.458364	0.757079	0.885556	0	0	-0.0322327	-0.166375	0.062462	0.551491	1.46625	0	0
1.77	0.145355	1.42695	-1.50234	0.732481	0.270186	0.937394	0.219052	-0.0731701	-0.0449521	0.129971	-0.290915	0	0	-0.350383	-0.00369705	-0.0456104	0.172294	-0.116854	0	0	-0.384082	0.105333	-0.0755376	-0.15301	-0.506433	0.46117	0.757562	0.880349	0	0	-0.0342335	-0.164582	0.0539112	0.551414	1.47433	0	0
1.78	0.147371	1.42549	-1.50143	0.732484	0.260914	0.936501	0.219185	-0.0722757	-0.0456454	0.152679	-0.29585	0	0	-0.356989	-0.00764003	-0.0481441	0.183902	-0.110994	0	0	-0.385402	0.107849	-0.0800805	-0.15227	-0.507331	0.46535	0.758303	0.87484	0	0	-0.0359454	-0.161665	0.0422487	0.550431	1.48432	0	0
1.79	0.148638	1.42257	-1.49977	0.732331	0.251627	0.935779	0.222612	-0.0709135	-0.0495794	0.19535	-0.285855	0	0	-0.364503	-0.0122929	-0.0513873	0.197067	-0.103233	0	0	-0.384231	0.108706	-0.0481961	-0.205805	-0.476054	0.339208	0.762875	0.970254	0	0	-0.00201165	-0.196033	0.228278	0.531798	1.33968	0	0
1.8	0.14023	1.4251	-1.48893	0.732317	0.241821	0.934918	0.232839	-0.0683367	-0.0534884	0.244523	-0.264375	0	0	-0.366572	-0.0176735	-0.0542442	0.209837	-0.0997559	0	0	-0.388142	0.114862	-0.11055	-0.122292	-0.516114	0.5234	0.753345	0.843814	0	0	-0.0585632	-0.134919	-0.0844395	0.56108	1.5708	0	0
1.81	0.127922	1.42404	-1.47361	0.73214	0.232064	0.93442	0.23625	-0.0647091	-0.0562375	0.28335	-0.256385	0	0	-0.372122	-0.024326	-0.0575375	0.222909	-0.0999138	0	0	-0.388421	0.119542	-0.114425	-0.124485	-0.514433	0.518207	0.753307	0.850777	0	0	-0.0595305	-0.133495	-0.0884403	0.557938	1.5708	0	0
1.82	0.108021	1.42197	-1.45139	0.731883	0.222253	0.93427	0.23383	-0.0598746	-0.0556001	0.303162	-0.263563	0	0	-0.379163	-0.0317733	-0.0599921	0.234518	-0.102337	0	0	-0.389929	0.125309	-0.117435	-0.125851	-0.513339	0.514741	0.753183	0.855389	0	0	-0.0599906	-0.131936	-0.091991	0.554119	1.5708	0	0
1.83	0.0886952	1.42022	-1.43015	0.731609	0.212225	0.934236	0.230201	-0.0555398	-0.0549408	0.314939	-0.279808	0	0	-0.385696	-0.0388659	-0.0620617	0.246563	-0.105995	0	0	-0.390588	0.130921	-0.120677	-0.127617	-0.512266	0.510906	0.753349	0.860278	0	0	-0.0617439	-0.130908	-0.0945686	0.551274	1.5708	0	0
1.84	0.0603602	1.41944	-1.39771	0.731291	0.201787	0.934415	0.223328	-0.0496983	-0.0580761	0.316679	-0.300575	0	0	-0.389888	-0.0486287	-0.0621837	0.260198	-0.111056	0	0	-0.38891	0.13808	-0.125628	-0.129697	-0.509726	0.50698	0.751339	0.865621	0	0	-0.0640708	-0.130481	-0.0962305	0.547602	1.5708	0	0
1.85	0.0289639	1.41914	-1.36326	0.730699	0.191031	0.934702	0.214745	-0.0423971	-0.0615312	0.314578	-0.321389	0	0	-0.392805	-0.0589465	-0.0634451	0.275004	-0.117793	0	0	-0.385934	0.144894	-0.1293	-0.132454	-0.506862	0.503219	0.748731	0.871509	0	0	-0.0669204	-0.130254	-0.0978181	0.544076	1.5708	0	0
1.86	-0.00056445	1.41902	-1.33221	0.729768	0.179993	0.935044	0.206331	-0.0346876	-0.0646098	0.315337	-0.331234	0	0	-0.395302	-0.0684827	-0.063289	0.290066	-0.122491	0	0	-0.382231	0.150425	-0.127079	-0.139587	-0.503992	0.497261	0.74699	0.872346	0	0	-0.0671369	-0.131216	-0.0941448	0.538068	1.5708	0	0
1.87	-0.0354707	1.41913	-1.29664	0.728714	0.168699	0.935398	0.198824	-0.0258245	-0.0658722	0.317469	-0.344289	0	0	-0.3952	-0.0787692	-0.064603	0.309529	-0.130364	0	0	-0.377591	0.156316	-0.131994	-0.137282	-0.502561	0.506568	0.742057	0.866784	0	0	-0.0735077	-0.130428	-0.100909	0.536233	1.5708	0	0
1.88	-0.0743563	1.42013	-1.25694	0.727528	0.157163	0.93575	0.192977	-0.0166341	-0.0672575	0.322045	-0.357269	0	0	-0.391367	-0.0896002	-0.0643958	0.333764	-0.140434	0	0	-0.371415	0.162088	-0.136147	-0.1359	-0.500906	0.516817	0.736411	0.862581	0	0	-0.0805455	-0.130799	-0.105936	0.534663	1.5708	0	0
1.89	-0.114903	1.42172	-1.21767	0.726118	0.145431	0.936071	0.187427	-0.0068469	-0.0651617	0.324864	-0.368492	0	0	-0.384102	-0.0997426	-0.064698	0.362607	-0.154639	0	0	-0.363975	0.166878	-0.124903	-0.155978	-0.489647	0.477905	0.733082	0.898943	0	0	-0.0787787	-0.135971	-0.0863704	0.525567	1.5708	0	0
1.9	-0.158994	1.42174	-1.17702	0.724493	0.133779	0.936615	0.179507	0.00455595	-0.0603977	0.326022	-0.367457	0	0	-0.376531	-0.109506	-0.0658257	0.395009	-0.173988	0	0	-0.357385	0.172001	-0.151229	-0.104094	-0.518688	0.62828	0.726639	0.774306	0	0	-0.104959	-0.130075	-0.130826	0.538595	1.5708	0	0
1.91	-0.199188	1.42021	-1.1415	0.722767	0.122165	0.937385	0.168768	0.0165422	-0.0554239	0.324508	-0.363649	0	0	-0.367851	-0.11862	-0.064762	0.431231	-0.193823	0	0	-0.353966	0.177193	-0.147765	-0.108687	-0.518724	0.628451	0.728032	0.776174	0	0	-0.111285	-0.130213	-0.133554	0.538784	1.5708	0	0
1.92	-0.241359	1.41784	-1.10457	0.720862	0.110531	0.938391	0.155116	0.0300421	-0.0507956	0.31762	-0.360307	0	0	-0.35685	-0.128548	-0.0624661	0.472103	-0.217902	0	0	-0.351079	0.182653	-0.143056	-0.113869	-0.51886	0.628174	0.729997	0.7789	0	0	-0.117951	-0.130744	-0.135258	0.540369	1.5708	0	0
1.93	-0.282348	1.41471	-1.06917	0.718827	0.098956	0.939587	0.139097	0.0441012	-0.0475562	0.307275	-0.357433	0	0	-0.343132	-0.138933	-0.0595904	0.518206	-0.244906	0	0	-0.348765	0.188246	-0.137861	-0.119584	-0.518901	0.626052	0.732761	0.781593	0	0	-0.124834	-0.131547	-0.13664	0.542878	1.5708	0	0
1.94	-0.317245	1.41121	-1.04132	0.716606	0.0874496	0.940848	0.122016	0.057491	-0.0433275	0.297175	-0.352551	0	0	-0.326567	-0.149125	-0.0594463	0.570243	-0.276968	0	0	-0.347411	0.192766	-0.131316	-0.126	-0.519009	0.622224	0.736943	0.785849	0	0	-0.132055	-0.132448	-0.139184	0.546342	1.5708	0	0
1.95	-0.343949	1.40768	-1.02323	0.714278	0.0761217	0.942043	0.105552	0.0692197	-0.0389037	0.291652	-0.341405	0	0	-0.307281	-0.158346	-0.0611851	0.627679	-0.306882	0	0	-0.347104	0.195729	-0.123505	-0.132889	-0.519628	0.61709	0.742917	0.791597	0	0	-0.140114	-0.133689	-0.141605	0.552265	1.5708	0	0
1.96	-0.323203	1.4167	-1.05404	0.711804	0.064274	0.941008	0.175167	0.0262335	-0.183263	0.509072	-0.25841	0	0	-0.276964	-0.153649	-0.0629691	0.692182	-0.340189	0	0	-0.336545	0.184019	-0.119108	-0.148501	-0.518617	0.600401	0.756236	0.804737	0	0	-0.159097	-0.138254	-0.145048	0.573014	1.5708	0	0
1.97	-0.382622	1.40059	-1.00357	0.709508	0.0541239	0.944085	0.0656097	0.0893472	-0.0286446	0.263586	-0.335867	0	0	-0.261086	-0.175067	-0.0675584	0.750704	-0.383957	0	0	-0.349371	0.199377	-0.105872	-0.148817	-0.521253	0.599416	0.759045	0.808572	0	0	-0.156748	-0.136957	-0.145193	0.569143	1.5708	0	0
1.98	-0.401033	1.398	-0.993781	0.707219	0.0435494	0.944765	0.0458398	0.0979315	-0.0240285	0.246183	-0.339214	0	0	-0.233315	-0.18306	-0.0687914	0.814472	-0.414749	0	0	-0.349766	0.200731	-0.0997841	-0.15038	-0.52589	0.607901	0.766893	0.801138	0	0	-0.165916	-0.138333	-0.149486	0.578727	1.5708	0	0
1.99	-0.373997	1.41232	-1.0296	0.705137	0.0326955	0.942705	0.144024	0.0468097	-0.209302	0.528449	-0.221571	0	0	-0.191662	-0.172732	-0.065181	0.883277	-0.446314	0	0	-0.329686	0.185457	-0.0503122	-0.240747	-0.488473	0.427868	0.787591	0.931011	0	0	-0.148229	-0.20359	0.0901149	0.583264	1.39674	0	0
2	-0.43218	1.39363	-0.977324	0.703013	0.0232265	0.94553	0.0169251	0.112051	-0.0241061	0.237241	-0.319042	0	0	-0.173031	-0.198136	-0.0660595	0.939938	-0.481081	0	0	-0.349436	0.202363	-0.107737	-0.106306	-0.557218	0.739728	0.780288	0.684134	0	0	-0.19705	-0.139011	-0.176585	0.608069	1.5708	0	0
2.01	-0.399676	1.40666	-1.01682	0.70146	0.0129156	0.943693	0.11762	0.061351	-0.218563	0.529629	-0.206148	0	0	-0.132454	-0.185109	-0.0568933	1.00395	-0.502504	0	0	-0.33905	0.18758	-0.109605	-0.113095	-0.560072	0.736555	0.793196	0.687989	0	0	-0.215074	-0.142654	-0.181814	0.62979	1.5708	0	0
2.02	-0.406701	1.40261	-1.01408	0.699818	0.00341737	0.944416	0.100353	0.0695214	-0.217455	0.523289	-0.202278	0	0	-0.103111	-0.191607	-0.0524516	1.06071	-0.5284	0	0	-0.343263	0.18947	-0.10536	-0.116045	-0.561122	0.73198	0.799153	0.690719	0	0	-0.219798	-0.144126	-0.183308	0.637615	1.5708	0	0
